PathFileType	4	(X/Y/Z)	/Users/itak/Documents/Research/Walk-IL/dataset/trc/00434_00167.trc
DataRate	CameraRate	NumFrames	NumMarkers	Units	OrigDataRate	OrigDataStartFrame	OrigNumFrames
100.000000	100.000000	4	53	mm	100.000000	543	724
Frame#	Time	RPSI			LPSI			L3			STRN			T10			C7			CLAV			RBAK			LBAK			LSHO			LUPA			LAEL			LAOL			LWTS			LWPS			LFRA			LIFD			LHPS			LHTS			RSHO			RUPA			RAEL			RAOL			RWTS			RWPS			RFRA			RIFD			RHTS			RHPS			RBHD			LFHD			RFHD			LBHD			LHIP			RHIP			RASI			LASI			LKNE			LTHI			LANK			LTIP			LTOE			LMT1			LMT5			LHEE			RKNE			RTHI			RANK			RTIP			RTOE			RMT1			RMT5			RHEE			
		X1	Y1	Z1	X2	Y2	Z2	X3	Y3	Z3	X4	Y4	Z4	X5	Y5	Z5	X6	Y6	Z6	X7	Y7	Z7	X8	Y8	Z8	X9	Y9	Z9	X10	Y10	Z10	X11	Y11	Z11	X12	Y12	Z12	X13	Y13	Z13	X14	Y14	Z14	X15	Y15	Z15	X16	Y16	Z16	X17	Y17	Z17	X18	Y18	Z18	X19	Y19	Z19	X20	Y20	Z20	X21	Y21	Z21	X22	Y22	Z22	X23	Y23	Z23	X24	Y24	Z24	X25	Y25	Z25	X26	Y26	Z26	X27	Y27	Z27	X28	Y28	Z28	X29	Y29	Z29	X30	Y30	Z30	X31	Y31	Z31	X32	Y32	Z32	X33	Y33	Z33	X34	Y34	Z34	X35	Y35	Z35	X36	Y36	Z36	X37	Y37	Z37	X38	Y38	Z38	X39	Y39	Z39	X40	Y40	Z40	X41	Y41	Z41	X42	Y42	Z42	X43	Y43	Z43	X44	Y44	Z44	X45	Y45	Z45	X46	Y46	Z46	X47	Y47	Z47	X48	Y48	Z48	X49	Y49	Z49	X50	Y50	Z50	X51	Y51	Z51	X52	Y52	Z52	X53	Y53	Z53	

544	5.43	755.6654663085938	924.2373046875	756.4583740234375	859.324462890625	913.6004638671875	660.0946655273438	793.8884887695312	1009.266906738281	727.5112915039062	992.655517578125	1215.74267578125	897.9029541015625	775.7075805664062	1131.213989257812	706.2598876953125	813.603271484375	1402.08642578125	748.0051879882812	964.7456665039062	1327.192749023438	863.61669921875	707.0678100585938	1284.109008789062	780.2078857421875	855.5675659179688	1351.565551757812	655.5211791992188	985.5253295898438	1374.11572265625	660.3685913085938	1033.716918945312	1253.156005859375	575.8064575195312	1049.837280273438	1037.796508789062	553.3903198242188	946.72265625	1033.538696289062	563.1307983398438	1059.418212890625	819.7213745117188	607.21435546875	1055.158081054688	817.349609375	533.1549682617188	1060.172241210938	948.4452514648438	546.1331787109375	1026.261352539062	655.3389892578125	577.2611694335938	1041.588500976562	736.610595703125	525.0201416015625	1056.426147460938	727.5309448242188	594.0025024414062	759.96826171875	1379.045776367188	917.0222778320312	690.2286987304688	1322.740234375	958.5034790039062	613.41552734375	1042.451293945312	970.7822875976562	610.7239990234375	1037.30224609375	903.0947265625	660.9905395507812	817.0348510742188	985.6453857421875	575.0509643554688	826.3535766601562	972.1502685546875	595.5307006835938	986.4088134765625	971.2290649414062	614.4017944335938	664.0423583984375	960.5712890625	635.65185546875	718.5390014648438	985.4550170898438	566.9625244140625	739.6513671875	968.8030395507812	816.404296875	1605.212890625	845.374755859375	1018.182495117188	1623.762939453125	803.505126953125	937.3148803710938	1634.053588867188	905.2504272460938	913.096435546875	1594.349609375	696.5269775390625	1048.158203125	824.29345703125	695.6342163085938	715.2605590820312	821.1444091796875	932.123779296875	836.9484252929688	854.2391967773438	970.7779541015625	1039.548461914062	869.8422241210938	817.0160522460938	1136.255249023438	434.0862731933594	847.1433715820312	1126.439086914062	582.5248413085938	803.3950805664062	1148.749633789062	24.6618709564209	858.8953247070312	1164.444946289062	279.9120178222656	865.4559936523438	1246.2548828125	35.60547256469727	1073.879760742188	1176.1396484375	37.986572265625	1036.17822265625	1255.445922851562	36.3709831237793	958.55908203125	1077.592651367188	28.34958076477051	852.0692749023438	673.7973022460938	444.7562561035156	865.0377807617188	720.8383178710938	683.1181640625	947.7368774414062	446.6045227050781	125.4817581176758	664.8238525390625	598.3445434570312	326.2332763671875	814.9472045898438	620.6449584960938	38.90531539916992	697.3787231445312	595.0971069335938	56.76002502441406	647.665283203125	521.7149047851562	45.86626434326172	727.0465698242188	428.9768371582031	173.4234313964844	602.0030517578125	
545	5.44	763.6536254882812	926.2274780273438	760.4579467773438	867.2315673828125	915.7715454101562	663.9164428710938	802.2442016601562	1011.745788574219	731.3886108398438	1001.422058105469	1217.791259765625	901.7730712890625	784.3079223632812	1133.731567382812	710.4718017578125	822.2938842773438	1404.419921875	752.36669921875	973.6369018554688	1329.33447265625	867.657470703125	715.9850463867188	1286.807861328125	785.0272216796875	864.1671752929688	1353.940307617188	659.7305908203125	994.0218505859375	1376.577514648438	664.6239624023438	1043.029541015625	1255.906005859375	580.380615234375	1061.157348632812	1040.668579101562	558.729248046875	958.0919189453125	1035.334228515625	567.8253784179688	1073.274658203125	823.1659545898438	614.2699584960938	1069.2705078125	820.200439453125	540.2127685546875	1072.599609375	951.39013671875	552.178955078125	1042.274169921875	658.1161499023438	585.0986938476562	1056.746337890625	739.289794921875	532.4984741210938	1071.482299804688	730.7821655273438	601.6054077148438	769.3904418945312	1381.803955078125	921.5458374023438	699.5755615234375	1326.015502929688	963.35400390625	621.5060424804688	1046.041748046875	974.8834228515625	618.904296875	1040.814208984375	907.1634521484375	668.29541015625	820.2372436523438	989.6934814453125	582.3714599609375	829.848876953125	975.8577880859375	603.43310546875	990.0477294921875	975.2801513671875	621.2359008789062	667.1514282226562	963.1004028320312	642.743896484375	721.748291015625	988.7548217773438	574.26025390625	743.0963745117188	971.8741455078125	825.0609741210938	1607.334228515625	849.2243041992188	1026.850708007812	1626.014282226562	807.4733276367188	945.9239501953125	1636.375732421875	909.1299438476562	921.8997802734375	1596.381103515625	700.4343872070312	1056.057861328125	825.9334106445312	698.8883666992188	723.76953125	822.8053588867188	936.025146484375	845.5303955078125	856.1215209960938	974.2542724609375	1047.878173828125	871.6094360351562	820.1527099609375	1141.512573242188	434.6505126953125	849.8263549804688	1132.977905273438	583.3035278320312	806.09619140625	1148.931518554688	24.7625846862793	858.958740234375	1167.854125976562	279.7012023925781	867.1635131835938	1246.406494140625	34.19964218139648	1074.219970703125	1176.315185546875	37.74567794799805	1036.369384765625	1255.911987304688	35.92960357666016	958.7684936523438	1077.877807617188	28.46629905700684	852.0746459960938	682.0675659179688	446.1905517578125	872.1267700195312	729.04345703125	684.982666015625	952.2149658203125	451.2963256835938	130.7381591796875	669.5533447265625	605.23046875	328.8499755859375	821.6067504882812	621.3054809570312	38.40399169921875	698.0857543945312	596.87939453125	57.72165679931641	649.3662719726562	523.9991455078125	46.66651153564453	729.0972900390625	435.0386962890625	180.6904754638672	608.0108642578125	
546	5.45	771.61767578125	928.1071166992188	764.0631713867188	875.3106689453125	917.8428344726562	667.5706787109375	810.6595458984375	1014.216430664062	735.0330200195312	1010.002197265625	1219.825317382812	905.61669921875	792.9332275390625	1136.285766601562	714.4608154296875	830.8370361328125	1406.7705078125	756.6299438476562	982.371826171875	1331.462768554688	871.6592407226562	724.7679443359375	1289.47265625	789.7224731445312	872.680419921875	1356.334350585938	663.8480834960938	1002.418762207031	1379.061645507812	668.8536987304688	1052.26123046875	1258.734252929688	584.86669921875	1072.445678710938	1043.623291015625	563.8568725585938	969.4388427734375	1037.077026367188	572.3994750976562	1087.470581054688	826.8603515625	621.4176635742188	1083.5869140625	823.1491088867188	547.3797607421875	1085.099365234375	954.4332885742188	558.11865234375	1058.8642578125	661.0934448242188	593.4459838867188	1072.206298828125	742.0504760742188	540.2853393554688	1086.99755859375	734.2845458984375	609.4761352539062	778.6470336914062	1384.548461914062	925.9666748046875	708.81884765625	1329.219604492188	968.1536865234375	629.794189453125	1049.4970703125	979.4412231445312	627.0230102539062	1044.177612304688	911.716552734375	676.0614013671875	823.3243408203125	994.0956420898438	590.1184692382812	833.1328125	980.2263793945312	611.6006469726562	993.5387573242188	979.8719482421875	628.8453979492188	670.3187866210938	966.0324096679688	650.4080810546875	724.7941284179688	992.291259765625	581.87451171875	746.2189331054688	975.2706298828125	833.6170654296875	1609.495239257812	853.0908813476562	1035.411865234375	1628.235473632812	811.4310913085938	954.47021484375	1638.65185546875	913.0291748046875	930.561279296875	1598.484741210938	704.3406372070312	1064.023193359375	827.4172973632812	702.2660522460938	732.0633544921875	824.5845947265625	939.5750732421875	853.7357177734375	858.138427734375	977.65625	1056.059814453125	873.1286010742188	823.4422607421875	1146.322387695312	434.9391174316406	852.1065063476562	1139.149291992188	583.710205078125	808.5426025390625	1149.067260742188	24.82995986938477	859.002685546875	1170.93359375	279.3992614746094	868.5462036132812	1246.504150390625	33.16770553588867	1074.504272460938	1176.435791015625	37.60792922973633	1036.524047851562	1256.2958984375	35.6116943359375	958.8936767578125	1078.11767578125	28.55405235290527	852.0509643554688	690.3568725585938	447.6536560058594	879.4624633789062	737.0333251953125	687.0565795898438	956.6734619140625	456.3741149902344	136.0448303222656	674.692138671875	612.1792602539062	331.4861450195312	828.5571899414062	622.2467651367188	37.69745254516602	698.933837890625	598.8597412109375	58.84090805053711	651.3405151367188	526.546875	47.63730239868164	731.4358520507812	441.3636169433594	187.9408111572266	614.4572143554688	
547	5.46	779.5132446289062	929.8787231445312	767.2853393554688	883.51025390625	919.866943359375	671.0678100585938	819.1005249023438	1016.666687011719	738.4730834960938	1018.390747070312	1221.817993164062	909.4401245117188	801.5285034179688	1138.830322265625	718.2134399414062	839.2410888671875	1409.101196289062	760.7786865234375	990.9380493164062	1333.547973632812	875.6235961914062	733.4046020507812	1292.060302734375	794.2470092773438	881.1204833984375	1358.713745117188	667.8614501953125	1010.735473632812	1381.515625	673.0546875	1061.419799804688	1261.569702148438	589.2730712890625	1083.69384765625	1046.599853515625	568.759521484375	980.7587280273438	1038.73388671875	576.8177490234375	1101.946166992188	830.775146484375	628.64453125	1098.079345703125	826.1519165039062	554.6464233398438	1097.653686523438	957.52099609375	563.9398803710938	1076.00146484375	664.2612915039062	602.3343505859375	1087.963256835938	744.8576049804688	548.3911743164062	1102.934326171875	738.0338134765625	617.628173828125	787.698974609375	1387.217529296875	930.2593994140625	717.9178466796875	1332.272583007812	972.8548583984375	638.2401123046875	1052.734497070312	984.4337158203125	635.028076171875	1047.319091796875	916.735107421875	684.2733154296875	826.2333374023438	998.85302734375	598.2796630859375	836.1309204101562	985.287109375	619.9999389648438	996.8013916015625	984.9915161132812	637.1854858398438	673.4454956054688	969.4288940429688	658.6368408203125	727.6178588867188	996.116455078125	589.8114624023438	748.9642333984375	979.104736328125	842.0557250976562	1611.659057617188	856.9527587890625	1043.856323242188	1630.404663085938	815.368896484375	962.9326782226562	1640.86083984375	916.9344482421875	939.0729370117188	1600.623291015625	708.2367553710938	1071.97900390625	828.807373046875	705.7651977539062	740.1287841796875	826.4208984375	942.753662109375	861.541748046875	860.2490234375	981.0051879882812	1064.045166015625	874.442138671875	826.8983764648438	1150.70556640625	435.0009765625	854.021728515625	1144.961181640625	583.861572265625	810.8169555664062	1149.171142578125	24.86330032348633	859.0282592773438	1173.70849609375	279.0235900878906	869.6372680664062	1246.572875976562	32.42898941040039	1074.743530273438	1176.521118164062	37.53522109985352	1036.639770507812	1256.63427734375	35.35815048217773	958.942626953125	1078.320068359375	28.62646293640137	852.0034790039062	698.644287109375	449.1219787597656	886.996337890625	744.8115234375	689.2720947265625	961.1029052734375	461.7940368652344	141.3671112060547	680.2362060546875	619.210205078125	334.0908203125	835.7661743164062	623.4658203125	36.78954315185547	699.900146484375	601.0413208007812	60.12244415283203	653.588134765625	529.3192749023438	48.79698181152344	734.0405883789062	447.9276428222656	195.1258850097656	621.3297729492188	
